<svg width="1600" height="1200" viewBox="0 0 1600 1200" fill="none" xmlns="http://www.w3.org/2000/svg">
  <defs>
    <linearGradient id="bgGrad" x1="0" y1="0" x2="0" y2="1">
      <stop offset="0%" stop-color="#E9F3FF"/>
      <stop offset="100%" stop-color="#D8E8FF"/>
    </linearGradient>
    <linearGradient id="suitBlue" x1="0" y1="0" x2="1" y2="1">
      <stop offset="0%" stop-color="#173B8F"/>
      <stop offset="100%" stop-color="#0B245D"/>
    </linearGradient>
    <linearGradient id="suitSlate" x1="0" y1="0" x2="1" y2="1">
      <stop offset="0%" stop-color="#526C94"/>
      <stop offset="100%" stop-color="#2D4166"/>
    </linearGradient>
    <linearGradient id="gold" x1="0" y1="0" x2="1" y2="1">
      <stop offset="0%" stop-color="#C79A57"/>
      <stop offset="100%" stop-color="#8A6030"/>
    </linearGradient>
    <filter id="softShadow" x="-20%" y="-20%" width="140%" height="140%">
      <feDropShadow dx="0" dy="20" stdDeviation="18" flood-color="#0E2455" flood-opacity="0.24"/>
    </filter>
  </defs>

  <rect width="1600" height="1200" fill="url(#bgGrad)"/>

  <g opacity="0.65">
    <rect x="0" y="0" width="1600" height="1200" fill="#F8FBFF"/>
    <path d="M260 300H1330L800 120L260 300Z" fill="#E7EEF8"/>
    <rect x="350" y="300" width="900" height="30" rx="8" fill="#D7E2F0"/>
    <rect x="390" y="330" width="820" height="28" rx="7" fill="#E7EEF8"/>
    <rect x="440" y="360" width="85" height="380" rx="20" fill="#D6E0EE"/>
    <rect x="560" y="360" width="85" height="380" rx="20" fill="#D6E0EE"/>
    <rect x="680" y="360" width="85" height="380" rx="20" fill="#D6E0EE"/>
    <rect x="800" y="360" width="85" height="380" rx="20" fill="#D6E0EE"/>
    <rect x="920" y="360" width="85" height="380" rx="20" fill="#D6E0EE"/>
    <rect x="1040" y="360" width="85" height="380" rx="20" fill="#D6E0EE"/>
    <rect x="370" y="740" width="860" height="28" rx="7" fill="#D7E2F0"/>
  </g>

  <g transform="translate(135,640)" opacity="0.92">
    <rect x="0" y="178" width="360" height="28" rx="8" fill="#6D4B2D"/>
    <rect x="20" y="144" width="320" height="36" rx="9" fill="#8D6038"/>
    <rect x="42" y="116" width="276" height="30" rx="8" fill="#6F4D2D"/>
    <rect x="58" y="90" width="244" height="28" rx="8" fill="#9A6B40"/>
    <rect x="82" y="66" width="196" height="24" rx="7" fill="#7A5532"/>
  </g>

  <g transform="translate(235,460)" filter="url(#softShadow)">
    <rect x="86" y="188" width="30" height="230" rx="14" fill="url(#gold)"/>
    <ellipse cx="102" cy="190" rx="34" ry="14" fill="#8F6438"/>
    <ellipse cx="17" cy="303" rx="42" ry="13" fill="#A47A4B"/>
    <ellipse cx="190" cy="303" rx="42" ry="13" fill="#A47A4B"/>
    <path d="M102 205L20 292" stroke="#7E5B35" stroke-width="6"/>
    <path d="M102 205L184 292" stroke="#7E5B35" stroke-width="6"/>
    <path d="M102 205V292" stroke="#7E5B35" stroke-width="6"/>
    <path d="M20 292C18 312 26 326 40 336H0C14 326 22 312 20 292Z" fill="#8F6438"/>
    <path d="M184 292C182 312 190 326 204 336H164C178 326 186 312 184 292Z" fill="#8F6438"/>
  </g>

  <g transform="translate(710,278)" filter="url(#softShadow)">
    <ellipse cx="150" cy="96" rx="72" ry="72" fill="#A46A42"/>
    <path d="M87 80C95 38 126 18 168 29C200 38 214 70 211 95C210 112 202 123 192 132C173 118 160 111 137 112C114 113 102 122 92 136C84 121 81 105 87 80Z" fill="#0A1E47"/>
    <rect x="72" y="176" width="186" height="322" rx="42" fill="url(#suitBlue)"/>
    <path d="M72 230C84 206 111 191 133 186L166 186L198 186C221 191 246 206 258 230V334C258 384 220 426 166 426H164C110 426 72 384 72 334V230Z" fill="#14367F"/>
    <path d="M124 210L168 320L212 210H188L168 245L148 210H124Z" fill="#11306F"/>
    <rect x="152" y="194" width="28" height="170" rx="8" fill="#2E5CB9"/>
    <path d="M130 182H198L188 214H141L130 182Z" fill="#F2F5FA"/>
    <path d="M96 512C113 483 134 467 165 467C197 467 218 483 234 512V602H96V512Z" fill="#112E70"/>
    <rect x="0" y="605" width="365" height="27" rx="10" fill="#0F2A66" opacity="0.14"/>
  </g>

  <g transform="translate(1008,512)" filter="url(#softShadow)">
    <ellipse cx="110" cy="74" rx="54" ry="54" fill="#C8875B"/>
    <path d="M62 74C67 39 92 23 126 29C154 34 167 58 165 79C162 102 147 117 132 124C113 116 103 114 84 117C74 112 60 95 62 74Z" fill="#3C221D"/>
    <rect x="44" y="132" width="206" height="236" rx="34" fill="url(#suitSlate)"/>
    <path d="M60 175C79 154 99 146 123 146C147 146 168 154 189 175V222C189 264 160 292 122 292C84 292 60 264 60 222V175Z" fill="#637DA6"/>
    <rect x="138" y="318" width="270" height="140" rx="18" fill="#2E3F5E"/>
    <rect x="146" y="326" width="254" height="124" rx="14" fill="#3A5076"/>
    <circle cx="264" cy="391" r="8" fill="#AFC2E3"/>
    <path d="M32 370C61 332 99 316 141 316C183 316 221 332 252 370V594H32V370Z" fill="#425E88"/>
    <rect x="0" y="598" width="430" height="27" rx="10" fill="#0F2A66" opacity="0.14"/>
  </g>
</svg>
